<svg width="20" height="24" viewBox="0 0 20 24" fill="none" xmlns="http://www.w3.org/2000/svg">
<path d="M8.6 18.6L15.65 11.55L14.25 10.15L8.6 15.8L5.75 12.95L4.35 14.35L8.6 18.6ZM10 24C8.61667 24 7.31667 23.7375 6.1 23.2125C4.88333 22.6875 3.825 21.975 2.925 21.075C2.025 20.175 1.3125 19.1167 0.7875 17.9C0.2625 16.6833 0 15.3833 0 14C0 12.6167 0.2625 11.3167 0.7875 10.1C1.3125 8.88333 2.025 7.825 2.925 6.925C3.825 6.025 4.88333 5.3125 6.1 4.7875C7.31667 4.2625 8.61667 4 10 4C11.3833 4 12.6833 4.2625 13.9 4.7875C15.1167 5.3125 16.175 6.025 17.075 6.925C17.975 7.825 18.6875 8.88333 19.2125 10.1C19.7375 11.3167 20 12.6167 20 14C20 15.3833 19.7375 16.6833 19.2125 17.9C18.6875 19.1167 17.975 20.175 17.075 21.075C16.175 21.975 15.1167 22.6875 13.9 23.2125C12.6833 23.7375 11.3833 24 10 24ZM10 22C12.2333 22 14.125 21.225 15.675 19.675C17.225 18.125 18 16.2333 18 14C18 11.7667 17.225 9.875 15.675 8.325C14.125 6.775 12.2333 6 10 6C7.76667 6 5.875 6.775 4.325 8.325C2.775 9.875 2 11.7667 2 14C2 16.2333 2.775 18.125 4.325 19.675C5.875 21.225 7.76667 22 10 22Z" fill="#4F46E5"/>
</svg>
