<svg width="25" height="25" viewBox="0 0 25 25" fill="none" xmlns="http://www.w3.org/2000/svg">
<path d="M12.5 25C10.7917 25 9.17708 24.6719 7.65625 24.0156C6.13542 23.3594 4.80729 22.4635 3.67188 21.3281C2.53646 20.1927 1.64062 18.8646 0.984375 17.3438C0.328125 15.8229 0 14.2083 0 12.5C0 10.7708 0.338542 9.14583 1.01562 7.625C1.69271 6.10417 2.60938 4.78125 3.76562 3.65625C4.92188 2.53125 6.27083 1.64062 7.8125 0.984375C9.35417 0.328125 11 0 12.75 0C14.4167 0 15.9896 0.286458 17.4688 0.859375C18.9479 1.43229 20.2448 2.22396 21.3594 3.23438C22.474 4.24479 23.3594 5.44271 24.0156 6.82812C24.6719 8.21354 25 9.70833 25 11.3125C25 13.7083 24.2708 15.5469 22.8125 16.8281C21.3542 18.1094 19.5833 18.75 17.5 18.75H15.1875C15 18.75 14.8698 18.8021 14.7969 18.9062C14.724 19.0104 14.6875 19.125 14.6875 19.25C14.6875 19.5 14.8438 19.8594 15.1562 20.3281C15.4688 20.7969 15.625 21.3333 15.625 21.9375C15.625 22.9792 15.3385 23.75 14.7656 24.25C14.1927 24.75 13.4375 25 12.5 25ZM5.625 13.75C6.16667 13.75 6.61458 13.5729 6.96875 13.2188C7.32292 12.8646 7.5 12.4167 7.5 11.875C7.5 11.3333 7.32292 10.8854 6.96875 10.5312C6.61458 10.1771 6.16667 10 5.625 10C5.08333 10 4.63542 10.1771 4.28125 10.5312C3.92708 10.8854 3.75 11.3333 3.75 11.875C3.75 12.4167 3.92708 12.8646 4.28125 13.2188C4.63542 13.5729 5.08333 13.75 5.625 13.75ZM9.375 8.75C9.91667 8.75 10.3646 8.57292 10.7188 8.21875C11.0729 7.86458 11.25 7.41667 11.25 6.875C11.25 6.33333 11.0729 5.88542 10.7188 5.53125C10.3646 5.17708 9.91667 5 9.375 5C8.83333 5 8.38542 5.17708 8.03125 5.53125C7.67708 5.88542 7.5 6.33333 7.5 6.875C7.5 7.41667 7.67708 7.86458 8.03125 8.21875C8.38542 8.57292 8.83333 8.75 9.375 8.75ZM15.625 8.75C16.1667 8.75 16.6146 8.57292 16.9688 8.21875C17.3229 7.86458 17.5 7.41667 17.5 6.875C17.5 6.33333 17.3229 5.88542 16.9688 5.53125C16.6146 5.17708 16.1667 5 15.625 5C15.0833 5 14.6354 5.17708 14.2812 5.53125C13.9271 5.88542 13.75 6.33333 13.75 6.875C13.75 7.41667 13.9271 7.86458 14.2812 8.21875C14.6354 8.57292 15.0833 8.75 15.625 8.75ZM19.375 13.75C19.9167 13.75 20.3646 13.5729 20.7188 13.2188C21.0729 12.8646 21.25 12.4167 21.25 11.875C21.25 11.3333 21.0729 10.8854 20.7188 10.5312C20.3646 10.1771 19.9167 10 19.375 10C18.8333 10 18.3854 10.1771 18.0312 10.5312C17.6771 10.8854 17.5 11.3333 17.5 11.875C17.5 12.4167 17.6771 12.8646 18.0312 13.2188C18.3854 13.5729 18.8333 13.75 19.375 13.75ZM12.5 22.5C12.6875 22.5 12.8385 22.4479 12.9531 22.3438C13.0677 22.2396 13.125 22.1042 13.125 21.9375C13.125 21.6458 12.9688 21.3021 12.6562 20.9062C12.3438 20.5104 12.1875 19.9167 12.1875 19.125C12.1875 18.25 12.4896 17.5521 13.0938 17.0312C13.6979 16.5104 14.4375 16.25 15.3125 16.25H17.5C18.875 16.25 20.0521 15.849 21.0312 15.0469C22.0104 14.2448 22.5 13 22.5 11.3125C22.5 8.79167 21.5365 6.69271 19.6094 5.01562C17.6823 3.33854 15.3958 2.5 12.75 2.5C9.91667 2.5 7.5 3.46875 5.5 5.40625C3.5 7.34375 2.5 9.70833 2.5 12.5C2.5 15.2708 3.47396 17.6302 5.42188 19.5781C7.36979 21.526 9.72917 22.5 12.5 22.5Z" fill="#006492"/>
</svg>
